<svg width="2126" height="450" xmlns="http://www.w3.org/2000/svg" xmlns:xlink="http://www.w3.org/1999/xlink" xml:space="preserve" overflow="hidden"><g transform="translate(-206 -110)"><g><path d="M1041.05 301.95 1020.28 350.544 1061.46 350.544ZM738.524 301.95 717.753 350.544 758.931 350.544ZM1475.34 295.398 1475.34 331.98 1482.08 331.98C1486.64 331.98 1505.4 331.434 1505.4 313.598 1505.4 295.58 1486.82 295.398 1482.45 295.398ZM2281.71 288.846 2281.71 331.98 2292.83 331.98C2308.86 331.98 2318.52 323.972 2318.52 309.958 2318.52 290.666 2300.48 288.846 2291.73 288.846ZM1796.99 288.846 1796.99 332.344 1805.55 332.344C1822.31 332.344 1832.33 324.336 1832.33 310.14 1832.33 303.406 1830.33 296.672 1822.68 292.304 1817.21 289.21 1811.01 288.846 1805.18 288.846ZM1974.24 286.844C1946.91 286.844 1924.86 309.048 1924.86 336.894 1924.86 364.74 1946.91 386.944 1974.24 386.944 2001.57 386.944 2023.62 364.74 2023.62 336.894 2023.62 309.048 2001.57 286.844 1974.24 286.844ZM427.241 286.844C399.91 286.844 377.864 309.048 377.864 336.894 377.864 364.74 399.91 386.944 427.241 386.944 454.571 386.944 476.617 364.74 476.617 336.894 476.617 309.048 454.571 286.844 427.241 286.844ZM2268.23 276.106 2290.28 276.106C2302.48 276.106 2312.69 277.562 2320.89 284.66 2329.81 292.304 2332 303.042 2332 310.686 2332 327.794 2321.25 344.72 2293.56 344.72L2281.71 344.72 2281.71 397.5 2268.23 397.5ZM2106.65 276.106 2120.14 276.106 2120.14 350.544C2120.14 360.736 2120.14 371.838 2129.79 380.028 2134.71 384.214 2143.09 386.944 2149.84 386.944 2156.58 386.944 2164.96 384.214 2169.88 380.028 2179.53 371.838 2179.53 360.736 2179.53 350.544L2179.53 276.106 2193.02 276.106 2193.02 354.184C2193.02 364.376 2191.92 374.204 2185.36 383.304 2178.08 393.314 2165.32 399.684 2149.84 399.684 2134.35 399.684 2121.59 393.314 2114.31 383.304 2107.75 374.204 2106.65 364.376 2106.65 354.184ZM1783.5 276.106 1803 276.106C1811.2 276.106 1823.4 276.652 1832.51 282.84 1839.62 287.572 1845.82 296.854 1845.82 309.776 1845.82 328.34 1833.61 341.99 1815.21 343.264L1853.83 397.5 1837.43 397.5 1800.45 344.356 1796.99 344.356 1796.99 397.5 1783.5 397.5ZM1451.65 276.106 1486.82 276.106C1503.58 276.106 1512.15 280.474 1517.79 285.206 1527.09 293.032 1529.82 303.406 1529.82 312.506 1529.82 324.336 1525.08 334.71 1515.61 341.08 1512.51 343.264 1508.14 345.266 1502.31 346.358L1540.2 397.5 1510.69 397.5 1478.26 348.724 1475.34 348.724 1475.34 397.5 1451.65 397.5ZM1284.43 276.106 1312.85 276.106 1334.17 313.78 1356.58 276.106 1385.01 276.106 1347.65 333.436 1389.2 397.5 1360.77 397.5 1334.17 353.092 1306.11 397.5 1277.69 397.5 1320.69 333.436ZM855.302 276.106 868.785 276.106 868.785 328.158 920.531 276.106 938.751 276.106 881.904 332.708 940.573 397.5 921.988 397.5 872.247 341.808 868.785 345.266 868.785 397.5 855.302 397.5ZM209 276.106 222.483 276.106 222.483 350.544C222.483 360.736 222.483 371.838 232.14 380.028 237.059 384.214 245.44 386.944 252.182 386.944 258.923 386.944 267.305 384.214 272.224 380.028 281.881 371.838 281.881 360.736 281.881 350.544L281.881 276.106 295.364 276.106 295.364 354.184C295.364 364.376 294.271 374.204 287.712 383.304 280.423 393.314 267.669 399.684 252.182 399.684 236.695 399.684 223.941 393.314 216.653 383.304 210.093 374.204 209 364.376 209 354.184ZM1974.24 274.104C2009.22 274.104 2037.46 300.676 2037.46 336.894 2037.46 372.93 2009.41 399.684 1974.24 399.684 1939.08 399.684 1911.02 372.93 1911.02 336.894 1911.02 300.676 1939.26 274.104 1974.24 274.104ZM1658.15 274.104C1669.81 274.104 1683.47 277.016 1695.32 286.116 1700.78 290.302 1705.88 295.762 1709.35 300.494L1699.33 309.594C1695.86 304.68 1691.85 300.312 1687.85 297.036 1682.02 292.304 1672.91 286.844 1658.33 286.844 1628.99 286.844 1608.59 308.866 1608.59 337.076 1608.59 370.2 1635.01 386.944 1657.97 386.944 1674.18 386.944 1688.21 378.754 1695.13 366.56 1697.32 362.738 1699.69 356.914 1700.05 349.27L1663.98 349.27 1663.98 336.53 1714.63 336.53 1714.63 339.442C1714.63 352.91 1710.62 367.47 1702.97 377.844 1699.33 382.758 1685.66 399.684 1657.78 399.684 1621.71 399.684 1594.74 372.202 1594.74 336.894 1594.74 301.586 1621.89 274.104 1658.15 274.104ZM593.361 274.104C600.831 274.104 606.844 275.56 612.856 279.564 617.776 282.84 621.966 287.754 624.7 293.032L613.95 300.13C612.31 296.854 609.577 293.214 606.844 291.03 604.475 289.21 600.102 286.844 593.179 286.844 581.153 286.844 572.772 294.306 572.772 305.59 572.772 310.322 574.047 313.052 577.327 316.146 580.971 319.786 585.526 321.788 590.081 323.79L601.742 328.886C608.848 331.98 615.407 335.256 620.509 340.352 626.704 346.54 629.255 353.638 629.255 362.374 629.255 384.76 612.674 399.684 590.81 399.684 582.793 399.684 572.772 398.046 564.391 389.856 558.378 384.032 554.734 375.66 553.094 368.38L566.213 364.74C567.124 371.11 570.039 376.57 573.501 380.21 578.785 385.488 584.797 386.944 590.992 386.944 607.573 386.944 615.407 375.114 615.407 362.92 615.407 357.46 613.767 352.728 609.394 348.724 605.933 345.448 601.195 343.264 594.819 340.352L583.886 335.256C579.149 333.072 573.136 330.524 567.67 325.246 562.387 320.15 559.289 314.508 559.289 305.408 559.289 286.662 573.683 274.104 593.361 274.104ZM427.241 274.104C462.223 274.104 490.465 300.676 490.465 336.894 490.465 372.93 462.406 399.684 427.241 399.684 392.076 399.684 364.017 372.93 364.017 336.894 364.017 300.676 392.258 274.104 427.241 274.104ZM1041.41 270.282 1095.89 397.5 1080.95 397.5 1066.74 363.284 1014.99 363.284 1000.42 397.5 985.477 397.5ZM738.889 270.282 793.367 397.5 778.427 397.5 764.215 363.284 712.469 363.284 697.893 397.5 682.953 397.5ZM1184.06 261 1191.35 261 1191.35 443 1184.06 443Z" fill="#2b2b2b" fill-rule="evenodd" fill-opacity="1"/></g></g></svg>